<?xml version="1.0" encoding="utf-8"?>
<!-- Generator: Adobe Illustrator 18.1.1, SVG Export Plug-In . SVG Version: 6.00 Build 0)  -->
<svg version="1.1" id="Layer_1" xmlns="http://www.w3.org/2000/svg" xmlns:xlink="http://www.w3.org/1999/xlink" x="0px" y="0px"
	 viewBox="0 0 204.9 318.8" enable-background="new 0 0 204.9 318.8" xml:space="preserve">
<g>
	<path fill="#A5A9C6" d="M84.6,8.6c0,0,0.3,4,3.7,4l0.3-1.6c0,0-2.5-1.9-0.3-5.1C88.4,5.9,84.6,6.3,84.6,8.6z"/>
	<path fill="#A5A9C6" d="M97.5,7.3c0,0-0.9,1.9,0,3.1l2.2,2.2l0.7-2.7l0.2-3.5C100.6,6.3,98.1,6.2,97.5,7.3z"/>
	<path fill="#F4763B" d="M93.1,7.5c0-0.2,0-0.4,0.1-0.7c-0.5-0.9-1.5-1.5-2.6-1.5c-1.7,0-3.1,1.4-3.1,3.1c0,1.7,1.3,3,2.9,3.1
		C91.6,10.6,92.6,9.3,93.1,7.5z"/>
	<path fill="#F89C6E" d="M93.2,6.8c0,0.3-0.1,0.5-0.1,0.7c-0.6,1.9-1.5,3.2-2.7,4.1c0.1,0,0.1,0,0.2,0c1.7,0,3.1-1.4,3.1-3.1
		C93.7,7.8,93.5,7.3,93.2,6.8z"/>
	<path fill="#F4763B" d="M104,6.7c-0.5-0.6-1.2-0.9-1.9-0.8c-1.2,0.2-1.9,1.8-1.6,3.5c0.2,1.2,1,2.2,1.8,2.6
		C103.6,10.5,104.2,8.7,104,6.7z"/>
	<path fill="#F89C6E" d="M104.9,8.6c-0.2-0.8-0.5-1.4-0.9-1.9c0.2,2-0.4,3.8-1.6,5.3c0.3,0.1,0.6,0.2,1,0.1
		C104.5,11.9,105.2,10.3,104.9,8.6z"/>
	
		<ellipse transform="matrix(0.8299 0.5579 -0.5579 0.8299 19.2686 -48.4615)" fill="#FFFFFF" cx="89.1" cy="7.4" rx="0.4" ry="0.9"/>
	<ellipse transform="matrix(0.9908 0.135 -0.135 0.9908 1.9153 -13.6263)" fill="#FFFFFF" cx="101.5" cy="7.3" rx="0.3" ry="0.8"/>
</g>
<path fill="#666E9A" d="M78.8,71.1c0,0,0.6-6.6-2.7-10.3c0,0,0.5-5.7,3.3-8.3c0,0,1.2-4.4-0.8-7.2l2.1-0.2c0,0,1.7,6.3,1.8,7.7
	c0,0,6,1.7,10.7,0.2c0,0-0.9-5.6-1.5-6.2l3.9,1.5c0,0,3.9,11,4.5,11c0,0-1.1,5.6-4.7,6.2l-3.6,5.4C91.9,70.9,79.4,70.9,78.8,71.1z"
	/>
<polygon fill="#A5A9C6" points="95.5,70.3 95.5,65.5 97.7,65.6 98.1,71.1 "/>
<polygon fill="#A5A9C6" points="105.1,71.5 105.1,64.7 107.5,64.3 110,65.9 109,73 "/>
<path fill="#A5A9C6" d="M73.3,15c0,0-3-5.6,1.2-8.8c0,0,4.1-3,4.8-3l6.8-2.1c0,0,3.3-1.2,3.9,0l2.1,3.2c0,0-4.7,0.9-6.3,2.9
	l-0.6-1.5l-2,2.1l-0.9-1.4l-4.5,8.2C77.9,14.6,74.2,18.1,73.3,15z"/>
<path fill="#A5A9C6" d="M61.7,43c0,0,11.5,3,11.9-4.4l-6.8-16.8c0,0,0.6-5.1,5.9-4.7c0,0-1.4-2.7-3.9-3c0,0-7.7-0.3-5.9,8
	c0,0,5.9,14.3,4.8,15.9C67.8,38,65.5,43,61.7,43z"/>
<path fill="#FDD1B7" d="M82.6,52.8c0,0-0.5-5.4-1.8-7.2L83,44c0,0,1.1-3.3,1.4-8.5c0,0-7.1-6.2-8.2-8.2c0,0-4.2,1.7-8.3-3.5
	c0,0-1.4-6.9,6-6.3L81.7,7l1.7,0.8l0.3,1.4L85,9.6c0,0,0.6,4.4,6.5,2.7c0,0,1.5-0.6,2.7-2.1l3.3,0.2l2.1,1.8c0,0-3.9,5.4-0.5,9.4
	l1.5,1.5l-1.2,8c0,0-2.6,5.4-5.3,6.9l-5.9-1.5c0,0-0.3,10.9,2.9,10.7h1.2l0.9,5.7C93.3,52.9,88.3,55.1,82.6,52.8z"/>
<path fill="#FCC4A3" d="M100.4,23.8c0,0-4.1,1.8-6,1.5c0,0-1.7-0.2-0.9-2c0,0,3.2-2.9,5-2.1C98.4,21.2,101.4,23,100.4,23.8z"/>
<path fill="#FCC4A3" d="M66.8,21.8c0,0,2.6,5.1,5.6,5.9c0,0,3.8,0.9,3.8-0.6c0,0-2-7.1-1.8-8.9C74.4,18.2,68.5,17.3,66.8,21.8z"/>
<path fill="#F9A97E" d="M96.3,32.7l-3.2,0.5c0,0-3-1.7-3-2.7c0,0,7.2-1.5,8.2-0.5C98.3,30,99.6,32.7,96.3,32.7z"/>
<path fill="#FFEDE2" d="M74.7,17.8c0,0,1.4,12.7,12.2,16.6c0,0-9.5-6.3-8.3-19.9L74.7,17.8z"/>
<path fill="#FFEDE2" d="M97.5,22.7l-2.9,1.1c0,0-0.5-2.9,0.5-5.7C95.1,18.1,96.4,22.7,97.5,22.7z"/>
<path fill="#FFFFFF" d="M83.2,18.1c0,0,1.2,2.6,6.6,1.7c0,0,2.6-1.5,0.8-2.7C90.6,17,85.3,14.4,83.2,18.1z"/>
<path fill="#FCC4A3" d="M57.3,73.6l12.1-1.2c0,0,7.1-1.5,6.3-4.8l-1.7-9.4l3.2-2.6l2.3-3.6c0,0,1.1-5.4-1.4-7.4c0,0-3-1.5-4.4-1.1
	c0,0-4.5,2.3-7.6,10.6v1.1l4.4,6.6c0,0,0.5,1.8-2.4,2.4l-3.9-5.7C64.3,58.5,59.9,72.9,57.3,73.6z"/>
<path fill="#A5A9C6" d="M60.5,55.1l2.4,1.7l5.3,7.6c0,0,2.9-1.2,2.4-2.4l-4.8-6.5L65.2,52C65.2,52,62,51.4,60.5,55.1z"/>
<path fill="#A5A9C6" d="M74.1,71.5c0,0,1.8-2,2.3-2.3l0.6,1.4L74.1,71.5z"/>
<g>
	<path fill="#FFFFFF" d="M144.3,180.5c-0.7-11.9-2.5-23-6-29.8c0,0-5.1-18.3-9.2-19.6l-14.8,10.2c0,0-24.3-3.6-26.9-5.4
		c0,0-42.1,34.7-37.6,99.1c0,0,22.4,22.1,31,41.9C122.4,264.2,138.4,212.1,144.3,180.5z"/>
	<path fill="#D3D5E4" d="M119.3,285.4c0,0,20.8-27.5,23.5-49.8c0,0,3.1-29.5,1.5-55c-5.9,31.6-21.9,83.7-63.6,96.4
		c1.3,2.9,2.2,5.8,2.8,8.5C83.5,285.4,104.9,289.9,119.3,285.4z"/>
</g>
<path fill="#FAB690" d="M60.4,290.5c-2.7-0.5-5.5-1.6-8.5-3.3l-0.7,5.2c0,0-15,11.3-15.6,12.7c0,0,23.6,8.4,30.1,12.7l0,0
	c-0.3-7-0.7-13.7-0.7-21.3C59.7,296.6,60.1,294,60.4,290.5z"/>
<path fill="#F4763B" d="M77,294.3l-2.9-4.5c0,0-5.8,2.4-13.7,0.8c-0.3,3.5-0.7,6,4.6,6c0,7.6,0.4,14.3,0.7,21.3l26.9-15.6L77,294.3z
	"/>
<path fill="#FAB690" d="M114.2,295.7l10.9,10.6c0,0,35.3-2.9,37.4-3.4L135.7,286c-5.7,2.3-11.8,3.8-18.4,4.7L114.2,295.7z"/>
<path fill="#F4763B" d="M129.4,283.2l-10.2,4.5l-1.9,3c6.5-0.9,12.6-2.4,18.4-4.7l-0.2-0.1L129.4,283.2z"/>
<g>
	<path fill="#FFFFFF" d="M44.3,254.2c-0.6-6.5,0.3-12.9,0.1-19.5c-2.1-0.1-4.1,0.1-5.7,0.5c1.6,6.4,1.8,12.9,3.2,19.2
		C42.6,254.2,43.4,254.2,44.3,254.2z"/>
	<path fill="#A5A9C6" d="M38.7,235.2c-2.2,0.5-3.6,1.1-3.6,1.1c-1.8,7.7,4.8,19,4.8,19c0.6-0.5,1.3-0.8,2-0.9
		C40.5,248.1,40.3,241.5,38.7,235.2z"/>
	<path fill="#A5A9C6" d="M50.8,236.5c-2.1-1.2-4.3-1.7-6.4-1.8c0.2,6.6-0.7,13-0.1,19.5c3,0.2,6.4,2,9.3,3.9
		c2.2-3.7,4.7-7.3,7.5-10.7C55.3,240.8,50.8,236.5,50.8,236.5z"/>
	<path fill="#A5A9C6" d="M72.4,279.3c1.5,2.9,2.4,5,2.4,5l8.6,1.4c-0.7-2.7-1.7-5.3-2.8-8C77.9,278.4,75.2,278.8,72.4,279.3z"/>
	<path fill="#666E9A" d="M61,247.5c-2.8,3.3-5.3,6.9-7.5,10.7c4.3,2.9,7.6,6.2,7.6,6.2c4.7,3.1,8.8,10.1,11.2,14.9
		c2.7-0.4,5.5-0.9,8.2-1.5C75.7,266.1,67.6,255.2,61,247.5z"/>
	<path fill="#666E9A" d="M119.2,285.7l6.1-1.8c0,0,19.5-28.1,16.8-41.5l-1.1,0.2C140.9,242.6,130.7,276.2,119.2,285.7z"/>
	<polygon fill="#666E9A" points="63,273.5 60.1,271.4 59.1,265.1 62.8,267.6 	"/>
	<path fill="#A5A9C6" d="M70,276.6c0.2-1.6-4.3-7.7-4.3-7.7l-2.3-0.2l0.2,7.9l1.2,1.1l-0.5,0.7c-2.5,0.2-5.3,5.4-5.3,5.4l-1.3-7.8
		c0.8-0.2,1.5-0.5,1.9-1l-2-12.5c0,0-3.2-6.3-13.4-7.5v1.8l1.8,2.7l0.6,2.7l2.2,1c0,0,0.8,11,2.4,12.1c0,0,1.3,0.4,3,0.6l1.3,8.7
		l-2,0.5l-0.2,2.7c3.6,3.4,16.1,2.9,16.1,2.9l-0.2-5.7L70,276.6z"/>
</g>
<polygon fill="#FFFFFF" points="47.8,255.8 48.3,262.6 50.1,262.6 53.9,276.2 56.4,276.4 53.7,262.3 51.9,262.3 51.2,256.7 "/>
<polygon fill="#FFFFFF" points="57.1,286.4 56.7,289.3 54.8,288.9 54.8,285.7 "/>
<polygon fill="#FFFFFF" points="64.9,277.7 64.1,268.5 66.4,269.4 65.9,277.5 "/>
<g>
	<path fill="#666E9A" d="M36.1,99.8l1.3,11.4l-2,3.4l-1.4,43l0.8,3.2C42.9,141.3,46.1,119.1,36.1,99.8z"/>
	<path fill="#A5A9C6" d="M39,92.4L36,99.7l0,0.2c0.4,0.7,0.7,1.4,1,2.1c0.5-2.7,1.7-5.3,3-7.8C39.4,93,39,92.4,39,92.4z"/>
	<path fill="#FFFFFF" d="M40.1,94.1c-1.4,2.5-2.5,5-3,7.8c1.4,3,2.5,6.1,3.3,9.2c1.7-1.4,3.5-3.2,5.4-4.8
		C43.8,100.5,41.4,96.3,40.1,94.1z"/>
	<path fill="#A5A9C6" d="M45.8,106.4c-1.9,1.6-3.6,3.4-5.4,4.8c2.3,8.6,2.4,17.5,1.1,26.4c2.2,0.7,4.3,1.8,6.4,3
		C50.7,126.7,48.6,114.8,45.8,106.4z"/>
	<path fill="#666E9A" d="M41.5,137.5c-1,6.8-2.9,13.5-5.3,20c-0.4,1.1-0.9,2.3-1.4,3.4l1.7,6.6c1.1-1.7,2.2-3.5,3.2-5.2
		c4.3-7.6,6.9-14.9,8.3-21.7C45.8,139.3,43.7,138.1,41.5,137.5z"/>
</g>
<path fill="#FFFFFF" d="M8.4,191.2c0,0,3.2-43.5,24-82.5c0,0,3.6,6.6,3.4,9.5L8.4,191.2z"/>
<path fill="#FFFFFF" d="M44.4,100.8l-3.9-6.1L47.1,77c0,0,9.1-4.1,21.5-4.3L53,93.6C53,93.6,43.7,96.5,44.4,100.8z"/>
<path fill="#001C58" d="M145.9,149.1c0,0-6.8-18.6-11.3-22.4l1.5-14l-8.8-25.4l-5.4-9.7c-7.9-7-42.4-6.6-42.4-6.6l-6.3,0.7
	C67.1,73,46.9,96.1,46.9,96.1l-3.2,4.5c12.7,36.7-4.1,62.3-4.1,62.3c-7.7,4.3-18.8,39.4-18.8,39.4L32,232.2c0,2.7,2.9,5,2.9,5
	c2.9-4.3,14.7-2.7,14.7-2.7c-8.6-50.2,33.1-96.3,33.1-96.3c-0.5-14.5,27.2-27.9,27.2-27.9c13.9,5.5,20.4,17.3,22.8,22.5l0.1,1.5
	c0,0,14.3,39.4,11.8,70.2l0.5,8.2c0,0,2.3,7,3.9,7.2C148.9,220,157,164.7,145.9,149.1z"/>
<g>
	<path fill="#FFFFFF" d="M76.8,86.3c-0.4-1.1-0.8-2.2-1.2-3.2c-6.3,1.3-11.4,5.6-13.4,11.3C69.6,96.5,80.1,96.8,76.8,86.3z"/>
	<path fill="#A5A9C6" d="M79.6,82.7c-1.4,0-2.8,0.2-4.1,0.4c0.5,1,0.9,2.1,1.2,3.2c3.2,10.5-7.2,10.2-14.7,8.1c-0.6,1.7-1,3.5-1,5.4
		c0,4.8,2.2,9.2,5.7,12.3c10.4-5.8,18.7-15.7,21.7-27.3C85.9,83.5,82.9,82.7,79.6,82.7z"/>
	<path fill="#7D84AB" d="M88.5,84.8c-3,11.6-11.3,21.6-21.7,27.3c3.3,2.9,7.7,4.8,12.7,4.8c2.6-8.2,10.5-13.3,18.6-17.1c0,0,0,0,0,0
		C98.1,93.3,94.2,87.7,88.5,84.8z"/>
	<path fill="#A5A9C6" d="M79.5,116.9c0,0,0.1,0,0.1,0c10.2,0,18.4-7.6,18.5-17.1C90,103.6,82.2,108.7,79.5,116.9z"/>
	<path fill="#FFFFFF" d="M127.6,91.8c-4.3-0.7-8.5-2.5-12.8-3.7c-0.9,3-1.5,5.7-1.6,8.1C118.4,95.6,124.1,96.6,127.6,91.8z"/>
	<path fill="#A5A9C6" d="M128.7,93.1l-2.9-7c-2.5-2.9-9.7-1.6-9.7-1.6c-0.5,1.2-0.9,2.4-1.2,3.5c4.3,1.2,8.5,3,12.8,3.7
		c-3.5,4.9-9.1,3.9-14.4,4.4c-0.5,6.4,1.4,10.9,4,14.1c4.9-1.4,9.5-3.4,13.5-6.5L128.7,93.1z"/>
	<path fill="#7D84AB" d="M130.6,103.7c-4.1,3.1-8.6,5.1-13.5,6.5c2.1,2.5,4.6,4.1,6.7,5.1c2.9-3.6,5-7.3,6.9-11.2L130.6,103.7z"/>
	<path fill="#A5A9C6" d="M123.8,115.3c2.2,1,3.8,1.4,3.8,1.4l4.5-5l-1.4-7.6C128.8,108,126.7,111.7,123.8,115.3z"/>
</g>
<path fill="#FAB690" d="M128.4,131.8l0.6-0.4h2.7c0,0-8.8-20.9-21.8-21.1c0,0-24.4,14.9-28.1,24.9
	C97.3,134.3,112.8,129.9,128.4,131.8z"/>
<path fill="#F4763B" d="M81.8,135.2C81.8,135.2,81.8,135.2,81.8,135.2c0,0,5,1.8,9,2.3c0,0,21.1,4.8,22.7,3.9l14.8-9.6
	C112.8,129.9,97.3,134.3,81.8,135.2z"/>
<path fill="#FFEDE2" d="M106.3,110.3c0,0,7.7,10,9.7,18.4c0,0-13.4-10.6-17.9-12.2L106.3,110.3z"/>
<ellipse fill="#FFFFFF" cx="77.3" cy="96.1" rx="2.5" ry="3.6"/>
<ellipse fill="#FFFFFF" cx="125.8" cy="93.6" rx="1.6" ry="2.7"/>
<path fill="#F4763B" d="M129.2,107.8l2,1.2c0,0,3.2,0.2,2.5-7.5c0,0-2-12.8-6.8-12.3C126.9,89.3,132.2,107.9,129.2,107.8z"/>
<path fill="#F4763B" d="M77,107.4c0,0,3.6,3.9,7.5,2c0,0,8.4-3.4,6.1-11.6c0,0-1.4-3.9-4.5-4.5C86.1,93.3,87.5,105.8,77,107.4z"/>
<path fill="#2B165E" d="M87.2,136.2c-0.9-0.1-1.7-0.1-2.3,0l1.3,0.1L87.2,136.2z"/>
<path fill="#2B165E" d="M59,236.9c0.2,0.3,0.3,0.6,0.3,0.9c0,0.9-0.7,1.6-1.6,1.6c-0.6,0-1.1-0.4-1.4-0.9c0.1,0.7,0.9,1.3,1.8,1.3
	c1,0,1.8-0.7,1.8-1.6C59.9,237.7,59.5,237.2,59,236.9z"/>
<path fill="#2B165E" d="M70.5,249.3c0.2,0.3,0.3,0.6,0.3,0.9c0,0.9-0.7,1.6-1.6,1.6c-0.6,0-1.1-0.4-1.4-0.9c0.1,0.7,0.9,1.3,1.8,1.3
	c1,0,1.8-0.7,1.8-1.6C71.4,250.1,71,249.6,70.5,249.3z"/>
<path fill="#2B165E" d="M79.5,263.2c0.2,0.3,0.3,0.6,0.3,0.9c0,0.9-0.7,1.6-1.6,1.6c-0.6,0-1.1-0.4-1.4-0.9c0.1,0.7,0.9,1.3,1.8,1.3
	c1,0,1.8-0.7,1.8-1.6C80.4,264,80.1,263.5,79.5,263.2z"/>
<path fill="#2B165E" d="M85.9,277.6c0.2,0.2,0.3,0.5,0.3,0.8c0,0.8-0.7,1.5-1.6,1.5c-0.6,0-1.1-0.3-1.4-0.8c0.1,0.7,0.9,1.2,1.8,1.2
	c1,0,1.8-0.7,1.8-1.5C86.8,278.4,86.4,277.9,85.9,277.6z"/>
<path fill="#2B165E" d="M114,157.5c0.2,0.3,0.3,0.6,0.3,0.9c0,0.9-0.7,1.6-1.6,1.6c-0.6,0-1.1-0.4-1.4-0.9c0.1,0.7,0.9,1.3,1.8,1.3
	c1,0,1.8-0.7,1.8-1.6C114.9,158.3,114.5,157.8,114,157.5z"/>
<path fill="#2B165E" d="M114.9,185c0.2,0.3,0.3,0.6,0.3,0.9c0,0.9-0.7,1.6-1.6,1.6c-0.6,0-1.1-0.4-1.4-0.9c0.1,0.7,0.9,1.3,1.8,1.3
	c1,0,1.8-0.7,1.8-1.6C115.8,185.8,115.4,185.2,114.9,185z"/>
<path fill="#2B165E" d="M114.6,212.2c0.2,0.3,0.3,0.6,0.3,0.9c0,0.9-0.7,1.6-1.6,1.6c-0.6,0-1.1-0.4-1.4-0.9
	c0.1,0.7,0.9,1.3,1.8,1.3c1,0,1.8-0.7,1.8-1.6C115.5,212.9,115.1,212.4,114.6,212.2z"/>
<path fill="#2B165E" d="M113.4,239c0.2,0.3,0.3,0.6,0.3,0.9c0,0.9-0.7,1.6-1.6,1.6c-0.6,0-1.1-0.4-1.4-0.9c0.1,0.7,0.9,1.3,1.8,1.3
	c1,0,1.8-0.7,1.8-1.6C114.3,239.8,113.9,239.3,113.4,239z"/>
<path fill="#2B165E" d="M111,267.4c0.2,0.3,0.3,0.6,0.3,0.9c0,0.9-0.7,1.6-1.6,1.6c-0.6,0-1.1-0.4-1.4-0.9c0.1,0.7,0.9,1.3,1.8,1.3
	c1,0,1.8-0.7,1.8-1.6C111.8,268.2,111.5,267.7,111,267.4z"/>
<path fill="#2B165E" d="M122.4,275.6c0.1,0.3,0.2,0.6,0.2,0.9c0,0.9-0.4,1.6-1,1.6c-0.4,0-0.7-0.4-0.9-0.9c0.1,0.7,0.6,1.3,1.1,1.3
	c0.6,0,1.1-0.7,1.1-1.6C123,276.4,122.7,275.9,122.4,275.6z"/>
<path fill="#2B165E" d="M129,263.8c0.1,0.3,0.2,0.6,0.2,0.9c0,0.9-0.4,1.6-1,1.6c-0.4,0-0.7-0.4-0.9-0.9c0.1,0.7,0.6,1.3,1.1,1.3
	c0.6,0,1.1-0.7,1.1-1.6C129.6,264.6,129.4,264.1,129,263.8z"/>
<path fill="#2B165E" d="M135.5,251.4c0.1,0.3,0.1,0.6,0.1,0.9c0,0.9-0.3,1.6-0.7,1.6c-0.3,0-0.5-0.4-0.7-0.9
	c0.1,0.7,0.4,1.3,0.8,1.3c0.5,0,0.9-0.7,0.9-1.6C136,252.2,135.8,251.7,135.5,251.4z"/>
<path fill="#2B165E" d="M139.8,239c0.1,0.3,0.1,0.6,0.1,0.9c0,0.9-0.3,1.6-0.7,1.6c-0.3,0-0.5-0.4-0.7-0.9c0.1,0.7,0.4,1.3,0.8,1.3
	c0.5,0,0.8-0.7,0.8-1.6C140.2,239.8,140,239.3,139.8,239z"/>
<path fill="#2B165E" d="M76.3,289.8l0.3,2.5C76.7,291.4,76.7,290.4,76.3,289.8z"/>
<path fill="#2B165E" d="M76.7,292.3c0,0.2,0,0.4,0,0.6c0,0,0.1,0,0.1,0L76.7,292.3z"/>
<path fill="#2B165E" d="M75.6,15.9C75.6,15.9,75.6,15.9,75.6,15.9c0,0.1,0,0.1,0,0.2C75.7,16,75.6,16,75.6,15.9z"/>
<path fill="#001C58" d="M79.8,84.2c-9.1,0-16.5,7.1-16.5,15.8c0,8.7,7.4,15.8,16.5,15.8c9.1,0,16.5-7.1,16.5-15.8
	C96.3,91.3,88.9,84.2,79.8,84.2z M79.8,114.8c-8.6,0-15.5-6.7-15.5-14.9c0-8.2,7-14.9,15.5-14.9c8.6,0,15.5,6.7,15.5,14.9
	C95.4,108.2,88.4,114.8,79.8,114.8z"/>
<path fill="#001C58" d="M81.5,91.3c-5.5,0-10,4.3-10,9.6c0,5.3,4.5,9.6,10,9.6c5.5,0,10-4.3,10-9.6C91.5,95.6,87,91.3,81.5,91.3z
	 M77.6,96.2c-0.9,1.1-2,1.7-2.5,1.4c-0.4-0.4-0.1-1.6,0.9-2.7c0.9-1.1,2-1.7,2.5-1.4C79,93.9,78.6,95.1,77.6,96.2z M81.1,109.5
	c-0.3,0-0.6,0-0.9,0c3-0.2,6-2,7.7-5.1c1.9-3.5,1.5-7.5-0.7-10.2c1.9,1.6,3.1,4,3.1,6.6C90.3,105.6,86.2,109.5,81.1,109.5z"/>
<path fill="#001C58" d="M92.8,14.6c-0.6,0.1-7.8-2.1-7.8-2.1c-1.8,0-4.2,2.5-4.2,2.5l3.5-1.6c1.9,0,8,3.1,8,3.1
	c1.3-0.6,1.1-2.6,1.1-2.6L92.8,14.6z"/>
<path fill="#001C58" d="M90.7,16.8c0,0-3.4-2.5-1.6-0.6c0,0-6.7-1.5-6.8,1.8c0,0,1,1,1.7,1c0,0,0.2-1.9,1.4-2.3c0,0,3.3-0.8,5.5,1.4
	l1.1,0.6L90.7,16.8z"/>
<path fill="#001C58" d="M86.9,16.3c-0.9,0.1-1.6,0.7-1.5,1.3c0,0.7,0.8,1.1,1.7,1.1c0.9-0.1,1.6-0.7,1.5-1.3
	C88.5,16.7,87.8,16.3,86.9,16.3z M86.3,17.7c-0.2,0-0.5-0.2-0.5-0.4c0-0.2,0.2-0.4,0.4-0.5c0.2,0,0.5,0.2,0.5,0.4
	C86.7,17.5,86.5,17.7,86.3,17.7z"/>
<path fill="#001C58" d="M73.9,22.3c0,0-0.2-3.5-4.4-0.9c0,0-1.2,1.2,0.2,2.4c0,0-0.7-1.6,0.3-1.9c0,0,0.5,2.4,2.2,3.8c0,0-2-4,0-4.4
	c0,0-0.5,3,1.2,3.3l2,0.5C75.4,25.3,72.7,23.2,73.9,22.3z"/>
<path fill="#001C58" d="M86.6,19.9c0,0,3.3,0.6,4.3-1.3l0.4,0c0,0-0.9,2.4-3,2.9c0,0,1.1-0.7,1-1.4C89.2,20.2,88.4,20.7,86.6,19.9z"
	/>
<path fill="#001C58" d="M87.1,136.3c-0.9-0.1-1.7-0.1-2.3,0l1.3,0.1L87.1,136.3z"/>
<path fill="#001C58" d="M110.9,112.7c3.4,3.9,7,13.6,7,13.6C117,117.9,110.9,112.7,110.9,112.7z"/>
<path fill="#001C58" d="M58.9,237.1c0.2,0.3,0.3,0.6,0.3,0.9c0,0.9-0.7,1.6-1.6,1.6c-0.6,0-1.1-0.4-1.4-0.9c0.1,0.7,0.9,1.3,1.8,1.3
	c1,0,1.8-0.7,1.8-1.6C59.8,237.9,59.5,237.4,58.9,237.1z"/>
<path fill="#001C58" d="M70.4,249.5c0.2,0.3,0.3,0.6,0.3,0.9c0,0.9-0.7,1.6-1.6,1.6c-0.6,0-1.1-0.4-1.4-0.9c0.1,0.7,0.9,1.3,1.8,1.3
	c1,0,1.8-0.7,1.8-1.6C71.3,250.2,70.9,249.7,70.4,249.5z"/>
<path fill="#001C58" d="M79.5,263.4c0.2,0.3,0.3,0.6,0.3,0.9c0,0.9-0.7,1.6-1.6,1.6c-0.6,0-1.1-0.4-1.4-0.9c0.1,0.7,0.9,1.3,1.8,1.3
	c1,0,1.8-0.7,1.8-1.6C80.4,264.1,80,263.6,79.5,263.4z"/>
<path fill="#001C58" d="M85.8,277.8c0.2,0.2,0.3,0.5,0.3,0.8c0,0.8-0.7,1.5-1.6,1.5c-0.6,0-1.1-0.3-1.4-0.8c0.1,0.7,0.9,1.2,1.8,1.2
	c1,0,1.8-0.7,1.8-1.5C86.7,278.5,86.3,278.1,85.8,277.8z"/>
<path fill="#001C58" d="M113.9,157.6c0.2,0.3,0.3,0.6,0.3,0.9c0,0.9-0.7,1.6-1.6,1.6c-0.6,0-1.1-0.4-1.4-0.9
	c0.1,0.7,0.9,1.3,1.8,1.3c1,0,1.8-0.7,1.8-1.6C114.8,158.4,114.4,157.9,113.9,157.6z"/>
<path fill="#001C58" d="M114.8,185.1c0.2,0.3,0.3,0.6,0.3,0.9c0,0.9-0.7,1.6-1.6,1.6c-0.6,0-1.1-0.4-1.4-0.9
	c0.1,0.7,0.9,1.3,1.8,1.3c1,0,1.8-0.7,1.8-1.6C115.7,185.9,115.3,185.4,114.8,185.1z"/>
<path fill="#001C58" d="M114.5,212.3c0.2,0.3,0.3,0.6,0.3,0.9c0,0.9-0.7,1.6-1.6,1.6c-0.6,0-1.1-0.4-1.4-0.9
	c0.1,0.7,0.9,1.3,1.8,1.3c1,0,1.8-0.7,1.8-1.6C115.4,213.1,115,212.6,114.5,212.3z"/>
<path fill="#001C58" d="M113.3,239.2c0.2,0.3,0.3,0.6,0.3,0.9c0,0.9-0.7,1.6-1.6,1.6c-0.6,0-1.1-0.4-1.4-0.9
	c0.1,0.7,0.9,1.3,1.8,1.3c1,0,1.8-0.7,1.8-1.6C114.2,240,113.8,239.5,113.3,239.2z"/>
<path fill="#001C58" d="M110.9,267.6c0.2,0.3,0.3,0.6,0.3,0.9c0,0.9-0.7,1.6-1.6,1.6c-0.6,0-1.1-0.4-1.4-0.9
	c0.1,0.7,0.9,1.3,1.8,1.3c1,0,1.8-0.7,1.8-1.6C111.8,268.4,111.4,267.9,110.9,267.6z"/>
<path fill="#001C58" d="M122.3,275.7c0.1,0.3,0.2,0.6,0.2,0.9c0,0.9-0.4,1.6-1,1.6c-0.4,0-0.7-0.4-0.9-0.9c0.1,0.7,0.6,1.3,1.1,1.3
	c0.6,0,1.1-0.7,1.1-1.6C122.9,276.5,122.7,276,122.3,275.7z"/>
<path fill="#001C58" d="M129,264c0.1,0.3,0.2,0.6,0.2,0.9c0,0.9-0.4,1.6-1,1.6c-0.4,0-0.7-0.4-0.9-0.9c0.1,0.7,0.6,1.3,1.1,1.3
	c0.6,0,1.1-0.7,1.1-1.6C129.5,264.7,129.3,264.2,129,264z"/>
<path fill="#001C58" d="M135.5,251.6c0.1,0.3,0.1,0.6,0.1,0.9c0,0.9-0.3,1.6-0.7,1.6c-0.3,0-0.5-0.4-0.7-0.9
	c0.1,0.7,0.4,1.3,0.8,1.3c0.5,0,0.9-0.7,0.9-1.6C135.9,252.4,135.7,251.9,135.5,251.6z"/>
<path fill="#001C58" d="M139.7,239.2c0.1,0.3,0.1,0.6,0.1,0.9c0,0.9-0.3,1.6-0.7,1.6c-0.3,0-0.5-0.4-0.7-0.9
	c0.1,0.7,0.4,1.3,0.8,1.3c0.5,0,0.8-0.7,0.8-1.6C140.1,240,140,239.5,139.7,239.2z"/>
<path fill="#001C58" d="M76.3,289.9l0.3,2.5C76.6,291.6,76.6,290.5,76.3,289.9z"/>
<path fill="#001C58" d="M76.6,292.5c0,0.2,0,0.4,0,0.6c0,0,0.1,0,0.1,0L76.6,292.5z"/>
<path fill="#001C58" d="M34.2,239.9l-1.2-3C33,236.9,30.2,239,34.2,239.9z"/>
<path fill="#001C58" d="M75.6,16C75.5,16.1,75.5,16.1,75.6,16c0,0.1,0,0.1,0,0.2C75.6,16.2,75.6,16.1,75.6,16z"/>
<path fill="#001C58" d="M78,13.7c0,0,0-0.1,0-0.2c0,0,0,0-0.1,0.1C77.9,13.6,78,13.7,78,13.7z"/>
<ellipse fill="#001C58" cx="74.7" cy="26.4" rx="0.6" ry="0.5"/>
<path fill="#001C58" d="M204.9,287.1c-2.1-7.6-61.7-6.8-72.9-6.6l0.4-4.3c1.1-0.2,2.9-0.9,2.9-0.9l1.5-10.9
	c3.8-8.4,5.2-14.3,5.2-14.3c1.8-6.1,1.6-13.9,1.3-18.3c3.3-24.3,3.9-46.2,3.5-63.1c2.9,23.8-0.5,47.6-0.5,47.6
	c16.6,33.2,16.9,26.6,16.9,26.6c2.7-42.9-14.2-116.3-14.2-116.3c-3.2-6.6-5.8-6.5-7.5-4.6c-2-6.4-4.8-13.8-7.5-20.6
	c-0.2-2.5-0.8-4.3-0.8-4.3c-0.6-3.6-3-6.6-4.3-8.1c-2.8-6.5-4.9-11-4.9-11c-1.1-1.6-3.5-2.9-6.5-4l0.5-1.5c0.8,0.3,1.4,0.4,1.4,0.4
	c1.1,0.6,2.2-1.1,2.2-1.1c1.1-0.2,0.8-1.9,0.8-1.9c-0.1-0.3,0.6-0.3,0.6-0.3c1.5-0.9,0.7-2.5,0.7-2.5c-0.1-0.5,0.5-0.8,0.5-0.8
	c1.1-0.6,0.7-1.8,0.7-1.8c0-0.5-2.2-2.5-2.8-3l0.7-2.1l0.3-0.6l2.3-1.4c-2.6-3.5-5.7-2.4-5.7-2.4l0.2,2.7l-1,2.6l-0.9-0.3
	c-2.9-2.2-3.6,2.3-3.6,2.3c0,0.7-1.2,1.6-1.2,1.6c0.2,0.9,1.6,0.2,1.6,0.2c0,0.6,0.8,0.9,0.8,0.9c-1.2,0.3-0.7,2.4-0.7,2.4
	c-0.8,0.2-1.4,0.5-1.9,0.7c-0.6-0.9-5.4-7.7-6.6-10.8c0,0-4.1-11.8-7.4-11.9c0,0-2.7-0.6-3.8,0.3c0,0-5-0.5-5-2.6
	c0,0-0.2-1.8-0.3-3.8c0,0,0,0,0,0l0-1.4l-0.3-0.2c2.9,0.8,4.9,0.7,4.9,0.7l1.3-1c1.3-0.7,6.9-4.3,9.6-15.7c0,0,0.3-2.8-0.7-5.9
	c0,0,0.2-2.4,0.5-4.2c0.4,0.7,1.1,1.8,1.5,2.4c0,0-0.2-3.4-1.1-6.8c1.1,1.5,2.1,3.1,2.1,3.1c-0.6-2.5-1.9-4.6-3.1-5.9
	c-0.8-1.6-1.8-3-3.2-3.6c0,0-8.3-1.9-11.5-0.5c0,0-8.6-0.7-16.2,6.6c0,0-2.4,4.7-2,6.5c0,0-4.7-1.6-6.9,0.5c0,0-3.5,6.1-2.5,8
	c0,0,2.2,8.2,3,9.8c0,0,2.2,7.7-0.3,9.4c0,0-5.9,2.6-4.2-2.8c0,0,1.4-1.7,2.4-0.5c0,0,0-1.8-2.4-2.1c0,0-6.9,4.4-1.7,6.6
	c0,0,2.8,3,11.8,2.4c-1.1,1.7-2.8,4.4-4.5,8.2l-0.4-1.7c-4.4-0.2-5.6,4.1-5.6,4.1l3,1.7l0.7,1c-1.1,5.5-5.9,13.1-7.2,15.1
	c-4.2,0.7-7.7,1.7-9.3,3l-1.5,3.1c-1.1,0-1.4,1.1-1.4,1.1l0.3,1l-3.2,6.5c-1.6-0.2-2,1.2-2,1.2l0.6,1.4l0.2-0.2c0,0.1,0,0.2-0.1,0.3
	l-0.3,0.6L39,91c0,0-3.9,8.2-3.6,10l0,0c-0.3,3.6,0.3,10.1,0.5,11.7l-0.2,0.2c-0.7-2-1.5-3.8-2.5-5.2c0,0,0.3-3-2.1,1.8
	c0,0-25.4,52.3-29.3,100.9c0,0-3.9,20.2-0.3,18.1c0,0,22.8-16.4,33.3-57.5C33.2,185.1,22.7,207,22.7,207
	c4.3,15.9,9.8,29.1,12.3,34.7c0.9,6.6,3.7,13.7,3.7,13.7l6.6,4.8l0.5,3.7l1.7,0.1l3.5,12.2c0,0,1.1,0.5,2.8,0.7l1.4,6.9
	c-0.8,0.3-2.3,0.8-2.3,0.8l-0.2,1.5l-1.8,0.5l-0.4,5.3l-14.9,12.4c-1.8,1.1-1.1,1.6-1.1,1.6c9.5,1.6,31.3,12.9,31.3,12.9
	c7.7-5.2,28.8-16.1,28.8-16.1l-3.2-1.6l25.4-0.4l8.2,6.3c4.2-1,30.6-2.8,37.2-3.3c3.2,0.6,0.4-1.5,0.4-1.5c-0.5-0.3-0.9-0.6-1.4-0.9
	l-1.5-2.9C205.1,294.8,204.9,287.1,204.9,287.1z M9.4,188.9c0,0,0.9-35,23.3-78.2l0.9,4.2C33.6,114.9,16.9,140.5,9.4,188.9z
	 M34.5,235.5c-0.5,0-0.9-0.6-0.9-1.3c0.1,0.5,0.4,0.9,0.7,0.9c0.5,0,0.8-0.7,0.8-1.6c0-0.3-0.1-0.6-0.2-0.9c0.3,0.3,0.5,0.8,0.5,1.4
	C35.4,234.8,35,235.5,34.5,235.5z M123.3,284.2c-0.9,0.2-1.8,0.4-2.8,0.6c12.5-14.5,21.4-41.3,21.4-41.3
	C138.8,262.9,127.5,278.9,123.3,284.2z M128.8,284.8v2.5c-2.5,1.8-9.5,2-9.5,2C120.6,289.4,128.8,284.8,128.8,284.8z M132.4,98.6
	c1.2,5.1,0.8,9.6-0.9,10c-0.5,0.1-1-0.1-1.6-0.7c0,0,0.1,0,0.1,0c1.7-0.4,2.1-4.8,0.9-10c-0.8-3.6-2.2-6.6-3.6-7.9
	C129,89.8,131.2,93.6,132.4,98.6z M120.9,87.7l6,1.3c0,0,0,0-0.1,0c-0.4-0.1-0.7-0.1-1.1,0c-2.5,0.7-3.1,5.9-1.5,11.5
	c1.4,4.9,4.1,8.6,6.4,9l-2.4,3.8c-0.3-0.1-0.5-0.2-0.8-0.3c-2.5-1.4-5.3-5.9-6.9-11.3c-0.9-2.9-1.3-5.8-1.3-8.2
	c0-2.3,0.4-4.3,1.2-5.4C120.6,88.1,120.8,87.9,120.9,87.7z M126.7,94c0,1.1-0.4,2-0.9,2c-0.5,0-0.9-0.9-0.9-2c0-1.1,0.4-2,0.9-2
	C126.3,91.9,126.7,92.8,126.7,94z M119,87.2l1.1,0.2l-0.2,0.3c-1.8,2.4-1.8,8.2,0,14.3c1.7,5.7,5,10.4,8,12.1
	c0.1,0.1-0.2,0.3-0.5,0.6c-5.4-1.8-8.4-9.9-8.4-9.9C115.2,94.1,117.7,89,119,87.2z M130.1,131l-10.9-2.5l-34.2,6.4
	c5-9.3,22.4-21.7,25.4-23.7C114,113.5,126.4,122.3,130.1,131z M47.7,97.6c0.5,0.3,0.8,0.8,0.8,1.4c0,0.9-0.7,1.6-1.6,1.6
	c-0.8,0-1.4-0.6-1.6-1.3c0.2,0.5,0.7,0.9,1.2,0.9c0.8,0,1.4-0.7,1.4-1.6C48,98.2,47.9,97.9,47.7,97.6z M49,147.1
	c0.9,0,1.6-0.7,1.6-1.6c0-0.3-0.1-0.6-0.3-0.9c0.5,0.3,0.9,0.8,0.9,1.4c0,0.9-0.8,1.6-1.8,1.6c-0.9,0-1.6-0.6-1.8-1.3
	C47.9,146.7,48.4,147.1,49,147.1z M51.4,112.6c0.5,0.3,0.9,0.8,0.9,1.4c0,0.9-0.8,1.6-1.8,1.6c-0.9,0-1.6-0.6-1.8-1.3
	c0.3,0.5,0.8,0.9,1.4,0.9c0.9,0,1.6-0.7,1.6-1.6C51.7,113.1,51.6,112.8,51.4,112.6z M50,131.2c0.3,0.5,0.8,0.9,1.4,0.9
	c0.9,0,1.6-0.7,1.6-1.6c0-0.3-0.1-0.6-0.3-0.9c0.5,0.3,0.9,0.8,0.9,1.4c0,0.9-0.8,1.6-1.8,1.6C50.9,132.6,50.2,132,50,131.2z
	 M49,127.6c0-0.2,0-0.4,0-0.6c2.2,0.3,18.4,2.6,21.8,4l1.7-15.1c-6.3-2.4-10.9-9-10.9-15.8c0-8.1,5.9-14.8,13.8-16.5l1.3-11v-0.4
	c0.3,0,0.5,0,0.8-0.1l-1.2,11.1c0.7-0.1,2.2-0.1,2.9-0.1c9.8,0,17.7,7.6,17.7,16.9c0,9.3-7.9,16.9-17.7,16.9c-2.1,0-4.2-0.4-6.1-1.1
	l-1.3,16.8C67.6,130.5,52.2,128,49,127.6z M60.1,124.7c0.4,0.2,0.7,0.6,0.7,1.1c0,0.7-0.7,1.3-1.5,1.3c-0.7,0-1.4-0.5-1.5-1.1
	c0.2,0.4,0.7,0.7,1.2,0.7c0.7,0,1.3-0.6,1.3-1.3C60.4,125.2,60.3,124.9,60.1,124.7z M70,116.7c0.4,0.2,0.7,0.6,0.7,1.1
	c0,0.7-0.7,1.3-1.5,1.3c-0.7,0-1.4-0.5-1.5-1.1c0.2,0.4,0.7,0.7,1.2,0.7c0.7,0,1.3-0.6,1.3-1.3C70.2,117.2,70.1,116.9,70,116.7z
	 M68.3,128.4c0.7,0,1.3-0.6,1.3-1.3c0-0.3-0.1-0.5-0.2-0.8c0.4,0.2,0.7,0.6,0.7,1.1c0,0.7-0.7,1.3-1.5,1.3c-0.7,0-1.4-0.5-1.5-1.1
	C67.3,128.1,67.8,128.4,68.3,128.4z M67.2,66.1c-1-1-0.4-2.2-0.2-2.5l0.5,0.8c0,0,0,0,0,0c0.1,0.1,0.1,0.3,0.2,0.3l0.1,0.1l0,0
	c1.2,0.8,3.9-3.3,3.9-3.3c2.6-2,1.7,2,1.7,2c1.7-0.3,0.6,2,0.6,2c1.5,0.3,0.5,2.3,0.5,2.3l0.5,1.1c-0.5,1.5-3.6,1.8-3.6,1.8
	l-2.1,0.8c-2.3,0.3-4.3,0.6-6.2,0.9l0.3-0.1l5.1-4.8L67.2,66.1z M76.2,70.7c-0.4,0-0.7,0.1-1.1,0.1l0.7-0.8L76.2,70.7z M76,63.7
	C76,63.6,76,63.6,76,63.7C76,63.6,76.1,63.7,76,63.7C76,63.7,76,63.7,76,63.7z M75.4,73.7c0,0.6-0.7,1.1-1.5,1.1
	c-0.7,0-1.4-0.4-1.5-0.9c0.2,0.3,0.7,0.6,1.2,0.6c0.7,0,1.3-0.5,1.3-1.1c0-0.2-0.1-0.4-0.2-0.6C75.1,73,75.4,73.3,75.4,73.7z
	 M73.9,80c0.4,0.2,0.7,0.6,0.7,1c0,0.6-0.7,1.2-1.5,1.2c-0.7,0-1.4-0.4-1.5-1c0.2,0.4,0.7,0.6,1.2,0.6c0.7,0,1.3-0.5,1.3-1.2
	C74.1,80.4,74,80.2,73.9,80z M76.6,66.2c0.1-0.8,0-1.4-0.1-1.8c1.2,2.3,1.5,5,1.6,6.2c-0.2,0-0.4,0-0.6,0c-0.1-0.5-0.4-1.1-0.7-1.5
	C77.4,68.3,76.6,66.2,76.6,66.2z M86,68.6v1.6c-0.4,0-0.8,0-1.2,0v-1.8l-1.7,0.2l0.1,1.7c-1.1,0-2.2,0.1-3.3,0.2l-0.6-2.3
	c3.3-5.3,8.2-1.4,10.5,1l0.1,1c-0.7,0-1.4,0-2.2,0v-1.5H86z M96,70.3l0.1-3.3h1.4l-0.1,3.4C96.8,70.4,96.4,70.3,96,70.3z
	 M84.4,136.3l0.4,0c0.6-0.1,1.4,0,2.3,0l31-4.2l-5.9,8.8c0,0-17.4-4.2-25.1-4.7l-1,0.1l-1.3-0.1c-0.2,0-0.3,0-0.5,0.1
	C84.4,136.3,84.4,136.3,84.4,136.3z M119.5,132.2l7,0.2l-12.9,7.8C115.4,138.1,118.3,133.9,119.5,132.2z M102.1,74.3
	c0.4,0.2,0.7,0.5,0.7,0.9c0,0.6-0.7,1.1-1.5,1.1c-0.7,0-1.4-0.4-1.5-0.9c0.2,0.3,0.7,0.6,1.2,0.6c0.7,0,1.3-0.5,1.3-1.1
	C102.4,74.7,102.3,74.5,102.1,74.3z M106.1,88.5c0.4,0.2,0.7,0.6,0.7,1.1c0,0.7-0.7,1.3-1.5,1.3c-0.7,0-1.4-0.5-1.5-1.1
	c0.2,0.4,0.7,0.7,1.2,0.7c0.7,0,1.3-0.6,1.3-1.3C106.3,89,106.2,88.7,106.1,88.5z M109.1,105.2c0.4,0.2,0.7,0.6,0.7,1.1
	c0,0.7-0.7,1.3-1.5,1.3c-0.7,0-1.4-0.5-1.5-1.1c0.2,0.4,0.7,0.7,1.2,0.7c0.7,0,1.3-0.6,1.3-1.3C109.3,105.7,109.2,105.5,109.1,105.2
	z M105.7,65.9c0,0,1.4-0.9,2.4,0.2l-0.1,5.1l-0.2,0.6c-0.8-0.1-1.5-0.3-2.3-0.4L105.7,65.9z M111.8,110.6c-0.3-0.2-0.5-0.4-0.8-0.6
	c0.8-10.8-7.3-37.2-7.3-37.2c0.3,0,0.6,0,0.8,0.1C110.7,94.3,111.6,107.2,111.8,110.6z M100.8,60.3l3.5,8v2.8
	c-1.8-0.2-3.5-0.4-5-0.6c-0.5-1.4-1.6-5-0.4-6.3C98.8,64.3,100.6,62.4,100.8,60.3z M94.9,49c0,0-0.5,4.7,3.9,9.2
	c0,0,1.5,3.9-2.7,6.5c-1.1,0.1-2-0.3-2-0.3c-3-0.9-8.3-0.5-8.3-0.5c-7.9,0.6-8.9-4.4-8.9-5.4c0-1.1,3.2-5.9,3.2-5.9
	c0.8-3.1-0.3-5.8-0.9-7c0.4,0,0.8,0.1,1.2,0c1,1.6,1.7,7.5,1.7,7.5c3.9,1.8,11.8,0.3,11.8,0.3l-0.9-5.2C93.6,48.5,94.3,48.7,94.9,49
	z M76.2,38.7c0,0,0.2-6.8-2-10.4c1,0,1.5-0.1,1.5-0.1l0.5,0.9c2.4,2.7,4.8,4.7,7.1,6.1c0.1,0.5,0.3,1.2,0.3,1.8c0,0.3,0,0.5,0,0.8
	c0,0,0,0,0,0l0,0c0.1,2.8-0.2,5.5-1.6,6.3c0,0-2.3,1.1-3.6,0.5c0,0-1.4-0.9-3.9-1.2C75.7,42.2,76.6,40.7,76.2,38.7z M89.6,48.4
	c0,0,1-0.2,2.3-0.1c0.4,1.5,0.7,4.1,0.7,4.1c-5.3,2.6-9.7-0.3-9.7-0.3c-0.1-1.1-1.3-4.8-1.7-6.4c1-0.2,2.1-0.6,3-1.4
	c0,0,0.6-3.9,0.6-6.8c0.3,0,1.1,0,1.9,1.7l0.2,8.2C86.9,47.3,86.7,49.2,89.6,48.4z M103.4,18.3c-1.6,2.1-5.2,1-5.2,1
	c-0.3-0.8,0.6-1.6,0.6-1.6c0,0,0,0,0.1,0c0.1,0.6,0.7,1,1.4,1c0.8,0,1.4-0.5,1.4-1.1c0-0.4-0.3-0.7-0.6-0.9
	C103.4,16.1,103.4,18.3,103.4,18.3z M101.9,6.1c0.1,0,0.3,0,0.4,0c0.5,0,1,0.3,1.4,0.8c0,0,0,0,0,0c0,0.1,0.1,0.1,0.1,0.2
	c0.1,0.2,0.2,0.3,0.3,0.5l0-0.2c0.4,0.7,0.7,1.5,0.5,2.6l0-0.1c-0.1,0.9-0.5,1.7-1.2,1.9c-1,0.3-2.2-0.7-2.6-2.3
	C100.3,7.9,100.8,6.4,101.9,6.1z M99,7.5c0.4,0,0.8-0.1,1.3-0.2c-0.4,0.8-0.1,1.9-0.1,1.9l-0.8,0.6C98.7,9.1,98.8,8.1,99,7.5z
	 M98.3,7.6c0,0-0.4,2.7,1.5,4.3C99.9,11.9,97.1,10.5,98.3,7.6z M92.4,6c0.1,0.1,0.3,0.2,0.4,0.3c0,0,0,0,0,0
	c0.5,0.5,0.9,1.3,0.9,2.1c0,1.6-1.3,2.9-2.9,2.9c0,0,0,0,0,0c0,0,0,0,0,0c-0.1,0-0.1,0-0.2,0c-0.1,0-0.2,0-0.2,0
	c-1.4-0.2-2.5-1.4-2.5-2.9c0-1.6,1.3-2.9,2.9-2.9C91.3,5.5,91.9,5.7,92.4,6z M86.1,8.2l-0.6,0.2c0,0,0.4-1.5,2.3-2.1
	c0,0-2.1,2.9,0.4,4.8l-0.7,1c0,0-1.4-0.2-2.1-1.9l0.9-0.5L86.1,8.2z M86.3,2.2c0.3-0.3,0.5-0.4,0.5-0.4c-0.1,1.2,0.4,0.9,0.4,0.9
	c0.5-1.5,1.2-1.6,1.2-1.6c1.6,0.9,2.1,3.4,2.1,3.4c-0.8-1.7-2.5-3-2.5-3c-0.6,1.1-0.4,3.3-0.3,3.9c0,0,0,0,0,0c-0.2-1.1-1-2-1-2
	C86.3,4,86.5,5.2,86.6,6c-0.1,0-0.1,0.1-0.2,0.1c-0.9-1.7-0.8-2.8-0.5-3.5c-0.7,0.9-2.2,2.9-2.4,4.5C83.6,7.2,83.1,3.2,86.3,2.2z
	 M74.9,6.9c-0.7,0.9-0.7,3.2-0.7,3.2c0.5-2,3.6-5.2,3.6-5.2l0.1,1.8C79,3.4,84.5,2,84.5,2c-8,2.4-7.2,11-7.2,11
	c-1.2-2-0.4-5.9-0.4-5.9c-2.7,2.5-2,8.4-2,8.4c-1.2-1.7-0.9-4.2-0.9-4.2c-0.5,0.6-0.7,2.4-0.7,2.4C72.8,8.7,74.9,6.9,74.9,6.9z
	 M82.4,8.2c-0.1,0.6-0.3,1.3-0.4,1.9c-0.4,0.3-0.9,0.6-1.4,1c0.3-0.6,0.5-1.1,0.8-1.4c0,0,0.5-0.8,0.9-1.7L82.4,8.2z M73.9,19.1
	c0,0,1,3.3,2.2,4.2c0,0-0.1-3.3,0.2-5.9c0.2-0.2,0.4-0.5,0.6-0.7c0.3,1.8,0.8,4.8,1.2,5.2c0,0,0.8-4.6,1.8-8.2c1.4-1.2,3-2.3,4.7-3
	c0,0,1.1,2.6,4.9,2.8c0,0,3,0.4,4.6-2.2c0,0,2.9-0.1,4.4,0.4c0,0.1,0.1,0.2,0.1,0.3c0,0-3,2.4-2,5.9l1.7,4.5l1.3,0.7
	c0,0-0.9,0.8-1.4,1.2c0,0,0,0-0.1,0c0,0,0,0.1,0,0.1l-0.9,0.4c0,0-2.4-0.1-3.3,0.8c0,0,2.4,0.3,2.1,0.9c0,0,0.1,0.2,0.3,0.4
	c0.1,0.6,0.5,1.1,0.9,1.4l0.3,0.4l-0.7,0.5l-1-0.7c0,0-3.2,0-6,1.7L88,29.8c0,0,0.8,1.1,2.4,1c0,0,3.6-0.7,4.8-0.4l1.5,0.3l0.7-0.3
	c0,0,0.8,1.2,0.3,1.5l-4.4,0.7l-1.9-0.5l1.3,1.3c0,0,3.4-0.2,3.9,0.5c0,0-0.9,2.6-2.4,3.2c-1,0.1-2.1-0.1-2.1-0.1
	c-11.6-3-15.9-10.7-15.9-10.7c-0.2,1.9-3.2,0.9-3.2,0.9l-0.2-0.1c-1.6-0.9-4.2-2.5-4.5-4.5C68.1,22.7,68.5,17.8,73.9,19.1z M67.1,43
	c-2.2,0.2-4.4-0.4-4.4-0.4C72.4,44,66,27.5,66,27.5c-1.4-2.3-2.3-6.1-2.3-6.1c0-9.1,7-5.4,7-5.4C61,14.6,66,24.8,66,24.8
	c5.2,8.6,5,15,5,15c0,0.6-0.2,1.2-0.5,1.6c0.6-3.5-1.8-8.4-1.8-8.4C70.7,39.3,68.9,41.9,67.1,43z M75.1,44.5c0,0,1.3,0.7,3.1,1
	c2.2,3.8,0.8,6.7,0.8,6.7l-1.9,2.4c-2.4-3.4-5.5-0.7-5.5-0.7l1.5,0.3l-2.1,5c0.6-1.5-1.1-2.3-1.1-2.3l-1.1,1.6l-2.2-3.4
	C67.7,52.4,71.6,43.7,75.1,44.5z M61.2,55.2c1.4-3,3.8-2.6,3.8-2.6l0.5,2.4c-1.1,0.4-1.9,1.1-2.2,1.5L61.2,55.2z M63.5,56.7
	l-0.1-0.1c1-0.7,2-0.8,2.6-0.7l4.2,6.8c-0.5,0.5-1.2,0.9-1.8,1.2L63.5,56.7z M64.6,59.8l2.1,3.3L66,62.3c-0.8,3,0.5,5.4,0.5,5.4
	l-5.7,4.5l-0.6,0.6c-0.1,0-0.2,0-0.3,0.1c-0.3,0-0.6,0.1-1,0.1C61,70.6,63.8,62.4,64.6,59.8z M48.1,77.7c0,0,1.8-3,19.9-4.2
	c0,0-18.1,2.1-23,23.9l-0.9,1.8l-1.2-2.4C42.9,96.7,53.8,77.7,48.1,77.7z M38.8,131.5c-0.1-1.4-0.2-2.7-0.3-4.1
	c0.8-0.4,1.4-1.4,1.4-2.7c0-1.6-0.9-2.8-2.1-2.9c-0.2-1.1-0.4-2.2-0.6-3.2c2.8,0.4,4,2.2,4.5,3.8c0.1,2.3,0.1,4.6,0.1,6.8
	C40.9,130.4,39.6,131.1,38.8,131.5z M41.8,131.2c0,0.2,0,0.4,0,0.6l0-0.4L41.8,131.2z M39,139.3c0-0.8,0-1.6,0-2.4l2.5-1.2
	c-0.1,1.5-0.3,2.9-0.4,4.3c0-0.8,0.1-1.3,0.1-1.3L39,139.3z M39,117.6c-0.8-0.4-1.5-0.6-2.1-0.6c-0.1-0.6-0.3-1.2-0.5-1.8l4-3.1
	c0.3,1.4,0.5,2.8,0.7,4.2L39,117.6z M37.6,157.7c11.6-24.6,3.5-49.8,3.5-49.8c-1.9-5.4-3.2-8.1-4.1-9l2.3-4.9
	c0,0,13.3,19.6,6.3,50.4c0,0-2.4,13.6-9.5,20.8C36.7,162.8,37.2,160.3,37.6,157.7z M45,158c0.4,0.3,0.7,0.8,0.7,1.4
	c0,0.9-0.6,1.6-1.4,1.6c-0.7,0-1.2-0.6-1.3-1.3c0.2,0.5,0.6,0.9,1.1,0.9c0.7,0,1.2-0.7,1.2-1.6C45.2,158.6,45.1,158.3,45,158z
	 M44,232.3c0.7,0,1.3-0.7,1.3-1.6c0-0.3-0.1-0.6-0.2-0.9c0.4,0.3,0.7,0.8,0.7,1.4c0,0.9-0.7,1.6-1.5,1.6c-0.7,0-1.3-0.6-1.4-1.3
	C43,232,43.5,232.3,44,232.3z M36,239.2c0.3-2.6,2.6-3.6,5.2-3.8c5,0,9,2.4,11.4,4.4c20.9,20.7,28.6,41.5,29.9,45.6
	c-0.5-0.1-0.9-0.2-1.4-0.3C71,259.9,51.6,243,51.6,243c-10.2-9.2-14.3-4.7-15.5-2.5C36.1,240,36,239.5,36,239.2z M63.3,257.3
	l-1.2,0.8l-2-2.6l0.9-1C61.9,255.5,62.6,256.4,63.3,257.3z M43.1,238.7v1.6c-0.5-0.4-3-0.5-3-0.5l-0.4-1.6
	C40.8,238.1,42,238.3,43.1,238.7z M40.5,254.4c-2.8-4.6-3.9-8.8-4.3-11.6c0-0.4,0-0.8-0.1-1.3c0.6-2,1.7-3,3.1-3.3l0.6,2.1
	c1.6-0.3,3.8,0.5,3.8,0.5l0.2-2c3.2,1.3,6.2,3.9,6.2,3.9c3.9,3.5,7.5,7.3,10.7,11.2l-1.2,1.4l2.5,3.4l1.9-0.8
	c9.4,12.3,14.9,24.2,16.2,26.9c-1.6-0.3-2.9-0.7-3.9-0.9c-11.7-24-28.1-29.2-28.1-29.2C44.7,253.2,40.5,254.4,40.5,254.4z
	 M58.9,283.3l-0.6-6.6c0.6-0.1,1.3-0.3,2-0.6l0.1-3.7l2.3,1.7l0.3,3.1c0.2,0.1,0.4,0.2,0.7,0.3C62.5,277.9,60.1,279.2,58.9,283.3z
	 M59.2,284c-0.1,0-0.2,0-0.3-0.1l0-0.1L59.2,284z M60.4,270.1l0.1-2.3l1.6,1.2l0.3,2.6L60.4,270.1z M63.8,279.8l-0.3,4.4
	c-1.1,0.2-1.6,0.7-1.9,1c-0.3-0.3-0.7-0.5-1.1-0.7C60.6,283.4,61.3,280.5,63.8,279.8z M63.3,286.6c2,1.5,5.1,0.2,5.1,0.2l-0.1,3.7
	c-1,0.1-2,0.1-3-0.1c0,0-0.9,0-2.3-0.1l-0.2-1.1L63.3,286.6z M64.4,285.5l0.4-7.6c1.1,0.3,2.2,0.3,3,0.3l-0.7,7.8
	C65.6,286.4,64.4,285.5,64.4,285.5z M63.9,276.3v-6.5c0.5-0.1,1.2-0.1,1.6,0c1.3,1.7,2.6,3.4,3.6,5l-0.2,2
	C65.8,277.6,63.9,276.3,63.9,276.3z M46.5,262.5l-0.4-6.8l1,0.3c2.5,0.7,4.9,1.9,7.1,3.3v2.2l-0.1,0.6
	C50.8,262,47.6,262.3,46.5,262.5z M48.7,263.5c2.1,0,5.1-0.1,7.4-0.2l1.2,7.8c-2.5,0.5-5.4,0.4-6.6,0.4L48.7,263.5z M51.7,275.3
	l-0.9-3.5c2.1,0.7,5.2,0.3,6.7,0.1l0.5,3.4C58,275.3,54.5,276.8,51.7,275.3z M55.1,277c0.6,0,1.3,0,2-0.1l1.1,7.9
	c-0.5,0.4-1.5,0.3-1.7,0.2L55.1,277z M61,286.3l0.1,3.8c-2.5-0.3-5.5-1-7.4-2.4l-0.1-1.7C57.3,287.5,61,286.3,61,286.3z M52,288.1
	c0,0,1.4,2.7,13.3,3.6c0,0,3.1,0.3,6.6-0.4v4.7c-2,0.4-4.4,0.8-6.3,0.7c0,0-10-0.2-13.9-4.4L52,288.1z M64.2,316.1
	c-15.4-7-27.2-10.6-27.2-10.6l13.8-12.1c1.1,0.9,5,3.5,13.6,4.4C65.1,303.3,64.2,316.1,64.2,316.1z M91.4,302.1
	c-2.9,2.3-25.6,14.7-25.6,14.7l-0.7-19c0.4,0,0.7,0.1,1,0.1c0,0,7.7-0.6,10.5-2L91.4,302.1z M77.3,291.2l-0.1-1.1c0-0.1,0-0.1,0-0.2
	c0-0.1,0.1-0.3,0-0.4c-0.1-0.7-0.3-0.8-0.6-0.7c-0.4-0.3-1.1-0.7-2.3-1.2c0.1-0.5,0.2-1.2,0.2-2c5.6,1.6,11.3,2.5,16.8,2.8
	C84.7,289.2,79.4,290.6,77.3,291.2z M83.8,285.6c-8.3-25.4-28.3-45.1-32.1-48.7c1.7-77.4,35.6-99.1,35.6-99.1l-0.8-0.3
	c5.8,1.6,19.1,5,26.9,4.6c0,0,0.2-0.1,0.7-0.4c1.1,5.3,4.1,24.5,2.6,71c0,0-0.6,56.9-7.9,73.7C98.4,287.3,89.8,286.6,83.8,285.6z
	 M115.5,140.8c4.2-2.5,13.2-7.8,13.7-7.8c15.8,26.3,14.8,75.6,13.4,97.8c-3.4,27.6-20.5,49.6-24.3,54.3c-2.5,0.4-4.9,0.8-7.2,1
	C112.6,277,122.6,212,115.5,140.8z M160.8,303.1c-17.3-0.6-32.6,1.7-35.7,2.2c-2.2-2.3-8.8-8.3-8.8-8.3c-0.5-2,19.7-8.8,19.7-8.8
	C139.6,290,156.8,300.7,160.8,303.1z"/>
<path fill="#00B1EB" d="M17.3,148C2.3,192.6,1.8,226.3,1.8,226.3S28.3,207,34,164.5c5.7-42.5-1.3-53.9-1.3-53.9l0.9,4.2
	c0,0-16.6,25.7-24.2,74C9.4,188.9,9.8,172.3,17.3,148z"/>
<g>
	<path fill="#00B1EB" d="M49.1,127c2.4,0.3,18.4,2.6,21.7,4l1.7-15.1c-6.3-2.4-10.9-9-10.9-15.8c0-8.1,5.9-14.8,13.8-16.5L76.7,73
		c-0.5,0-1.1,0-1.6,0.1c0.2,0.2,0.3,0.4,0.3,0.6c0,0.6-0.7,1.1-1.5,1.1c-0.7,0-1.4-0.4-1.5-0.9c0.2,0.3,0.7,0.6,1.2,0.6
		c0.7,0,1.3-0.5,1.3-1.1c0-0.1,0-0.2-0.1-0.3c-2.6,0.1-5.1,0.3-7.6,0.5c-3.6,0.7-17.9,4.7-22.2,23.7l-0.9,1.8l-1.2-2.4
		c0,0,10.9-19,5.1-19l-7.7,14.9C40.4,92.6,48.7,105.5,49.1,127z M68.9,118.8c0.7,0,1.3-0.6,1.3-1.3c0-0.3-0.1-0.5-0.2-0.8
		c0.4,0.2,0.7,0.6,0.7,1.1c0,0.7-0.7,1.3-1.5,1.3c-0.7,0-1.4-0.5-1.5-1.1C67.9,118.5,68.4,118.8,68.9,118.8z M68.3,128.4
		c0.7,0,1.3-0.6,1.3-1.3c0-0.3-0.1-0.5-0.2-0.8c0.4,0.2,0.7,0.6,0.7,1.1c0,0.7-0.7,1.3-1.5,1.3c-0.7,0-1.4-0.5-1.5-1.1
		C67.3,128.1,67.8,128.4,68.3,128.4z M72.8,81.8c0.7,0,1.3-0.5,1.3-1.2c0-0.2-0.1-0.5-0.2-0.7c0.4,0.2,0.7,0.6,0.7,1
		c0,0.6-0.7,1.2-1.5,1.2c-0.7,0-1.4-0.4-1.5-1C71.9,81.6,72.3,81.8,72.8,81.8z M59.1,126.8c0.7,0,1.3-0.6,1.3-1.3
		c0-0.3-0.1-0.5-0.2-0.8c0.4,0.2,0.7,0.6,0.7,1.1c0,0.7-0.7,1.3-1.5,1.3c-0.7,0-1.4-0.5-1.5-1.1C58.1,126.5,58.5,126.8,59.1,126.8z
		 M50.1,115c0.9,0,1.6-0.7,1.6-1.6c0-0.3-0.1-0.6-0.3-0.9c0.5,0.3,0.9,0.8,0.9,1.4c0,0.9-0.8,1.6-1.8,1.6c-0.9,0-1.6-0.6-1.8-1.3
		C48.9,114.7,49.5,115,50.1,115z M46.6,100.1c0.8,0,1.4-0.7,1.4-1.6c0-0.3-0.1-0.6-0.2-0.9c0.5,0.3,0.8,0.8,0.8,1.4
		c0,0.9-0.7,1.6-1.6,1.6c-0.8,0-1.4-0.6-1.6-1.3C45.6,99.7,46,100.1,46.6,100.1z"/>
	<path fill="#00B1EB" d="M35.1,236.3c1.2-1.8,6.7-4.2,15.9,0.2c0,0-2.8-61.5,32.4-98.4l-0.6-2c0,0,5.7-13.6,27.7-27.1
		c0,0,1.4-5.1-7.2-36c0,0-12.5-0.6-25.9,0l-1.1,10.2c0.7-0.1,2.2-0.1,2.9-0.1c9.8,0,17.7,7.6,17.7,16.9c0,9.3-7.9,16.9-17.7,16.9
		c-2.1,0-4.2-0.4-6.1-1.1l-1.3,16.8c-4.3-2.1-19.5-4.7-22.9-5.1c0,2.3-0.1,4.8-0.3,7.3c-2,26.3-14,37.3-14,37.3s-0.2,1-0.6,2.7
		c-0.5,2.3-1.1,4.6-1.8,7c-2.1,7.6-5.3,17.9-9.4,24.2l7.9,23.7C31,229.9,34,238.1,35.1,236.3z M108,107.3c0.7,0,1.3-0.6,1.3-1.3
		c0-0.3-0.1-0.5-0.2-0.8c0.4,0.2,0.7,0.6,0.7,1.1c0,0.7-0.7,1.3-1.5,1.3c-0.7,0-1.4-0.5-1.5-1.1C107,107,107.5,107.3,108,107.3z
		 M105,90.6c0.7,0,1.3-0.6,1.3-1.3c0-0.3-0.1-0.5-0.2-0.8c0.4,0.2,0.7,0.6,0.7,1.1c0,0.7-0.7,1.3-1.5,1.3c-0.7,0-1.4-0.5-1.5-1.1
		C104,90.3,104.5,90.6,105,90.6z M101,76c0.7,0,1.3-0.5,1.3-1.1c0-0.2-0.1-0.4-0.2-0.6c0.4,0.2,0.7,0.5,0.7,0.9
		c0,0.6-0.7,1.1-1.5,1.1c-0.7,0-1.4-0.4-1.5-0.9C100.1,75.7,100.5,76,101,76z M51.4,132.1c0.9,0,1.6-0.7,1.6-1.6
		c0-0.3-0.1-0.6-0.3-0.9c0.5,0.3,0.9,0.8,0.9,1.4c0,0.9-0.8,1.6-1.8,1.6c-0.9,0-1.6-0.6-1.8-1.3C50.3,131.8,50.8,132.1,51.4,132.1z
		 M49,147.1c0.9,0,1.6-0.7,1.6-1.6c0-0.3-0.1-0.6-0.3-0.9c0.5,0.3,0.9,0.8,0.9,1.4c0,0.9-0.8,1.6-1.8,1.6c-0.9,0-1.6-0.6-1.8-1.3
		C47.9,146.7,48.4,147.1,49,147.1z M44,160.5c0.7,0,1.2-0.7,1.2-1.6c0-0.3-0.1-0.6-0.2-0.9c0.4,0.3,0.7,0.8,0.7,1.4
		c0,0.9-0.6,1.6-1.4,1.6c-0.7,0-1.2-0.6-1.3-1.3C43.1,160.1,43.5,160.5,44,160.5z M44,232.3c0.7,0,1.3-0.7,1.3-1.6
		c0-0.3-0.1-0.6-0.2-0.9c0.4,0.3,0.7,0.8,0.7,1.4c0,0.9-0.7,1.6-1.5,1.6c-0.7,0-1.3-0.6-1.4-1.3C43,232,43.5,232.3,44,232.3z
		 M34.3,235c0.5,0,0.8-0.7,0.8-1.6c0-0.3-0.1-0.6-0.2-0.9c0.3,0.3,0.5,0.8,0.5,1.4c0,0.9-0.4,1.6-1,1.6c-0.5,0-0.9-0.6-0.9-1.3
		C33.6,234.7,33.9,235,34.3,235z"/>
</g>
<path fill="#001C58" d="M79.4,82.2c-10.2,0-18.5,8.1-18.5,18c0,9.9,8.3,18,18.5,18c10.2,0,18.5-8.1,18.5-18
	C97.8,90.3,89.5,82.2,79.4,82.2z M79.4,117.1c-9.6,0-17.4-7.6-17.4-17c0-9.4,7.8-17,17.4-17c9.6,0,17.4,7.6,17.4,17
	C96.8,109.5,89,117.1,79.4,117.1z"/>
<path fill="#001C58" d="M103.7,6.9c0,0.1,0.1,0.1,0.1,0.2C103.8,7,103.8,7,103.7,6.9z"/>
<path fill="#001C58" d="M92.8,6.4C92.8,6.4,92.8,6.4,92.8,6.4C92.8,6.4,92.8,6.4,92.8,6.4z"/>
<path fill="#001C58" d="M90.7,11.4C90.7,11.4,90.7,11.4,90.7,11.4c0,0-0.1,0-0.2,0C90.6,11.4,90.7,11.4,90.7,11.4z"/>
<g>
	<path fill="#FFFFFF" d="M113.9,170.1c-0.4-1.4-0.8-2.7-1.2-4c-6.3,1.7-11.3,7.1-13.2,14.2C106.8,182.9,117.2,183.2,113.9,170.1z"/>
	<path fill="#A5A9C6" d="M116.7,165.5c-1.4,0-2.7,0.2-4,0.6c0.5,1.3,0.9,2.6,1.2,4c3.3,13.1-7.1,12.8-14.5,10.2
		c-0.6,2.1-0.9,4.4-0.9,6.8c0,6,2.2,11.5,5.7,15.4c10.2-7.3,18.4-19.7,21.2-34.3C122.9,166.4,119.9,165.5,116.7,165.5z"/>
	<path fill="#7D84AB" d="M125.5,168.1c-2.9,14.6-11,27-21.2,34.3c3.3,3.7,7.7,5.9,12.6,5.9c2.5-10.3,10.3-16.7,18.3-21.4
		c0,0,0,0,0-0.1C135,178.7,131.2,171.7,125.5,168.1z"/>
	<path fill="#A5A9C6" d="M116.8,208.3c0,0,0.1,0,0.1,0c10.1-0.1,18.2-9.7,18.1-21.4C127.1,191.5,119.3,198,116.8,208.3z"/>
</g>
<ellipse transform="matrix(-1 5.924580e-03 -5.924580e-03 -1 223.5319 354.1762)" fill="#FFFFFF" cx="111.2" cy="177.4" rx="3.8" ry="6.8"/>
<path fill="#001C58" d="M116.7,164.2c-10.6,0.1-19.1,10.2-19,22.7c0.1,12.5,8.7,22.5,19.3,22.5c10.5-0.1,19.1-10.2,19-22.7
	C135.9,174.3,127.2,164.2,116.7,164.2z M116.9,208.1c-10,0.1-18.1-9.4-18.2-21.2c-0.1-11.7,8-21.3,18-21.4
	c10-0.1,18.1,9.4,18.2,21.2C134.9,198.5,126.9,208.1,116.9,208.1z"/>
<path fill="#FFDD00" stroke="#001C58" stroke-miterlimit="10" d="M117.7,168.5c-8.4,0-15.2,8.1-15.1,18.1c0.1,9.9,6.9,18,15.3,17.9
	c8.4,0,15.2-8.2,15.1-18.1C133,176.4,126.1,168.4,117.7,168.5z"/>
<path fill="#FFFFFF" d="M111.8,177.7c-1.4,2.1-3.1,3.3-3.8,2.6c-0.7-0.7-0.1-3,1.3-5.1c1.4-2.1,3.1-3.3,3.8-2.6
	C113.8,173.3,113.2,175.6,111.8,177.7z"/>
<path fill="#FAB690" d="M117.3,202.8c-0.5,0-1,0-1.4-0.1c4.6-0.4,9.2-3.9,11.7-9.7c2.8-6.6,2.2-14.2-1.2-19.2
	c2.9,3,4.8,7.4,4.8,12.4C131.3,195.3,125,202.7,117.3,202.8z"/>
<path fill="#00B1EB" d="M146.8,168.8c-3.1-36.4-6.7-46-6.7-46s-4.2-13.1-6.6-17.5c0,0-1.4,7.3-5.1,10c0,0-4.3,2.7-10.3-8.9
	c-6-11.6-2-20-0.9-20.4c1.1-0.3,8.9,2.1,8.9,2.1s-2.8-9.8-4.8-10.6c-2-0.7-3.2-3.5-16.4-4.5c0,0,7,24.9,6.9,36.9
	c0,0,12.7,9.7,17.5,16.3c2.8,3.5,2.4,6.5,2.4,6.5c14.4,32.7,12.4,60.5,13.6,77.5l1.5,2.1C147.5,200.7,146.8,168.8,146.8,168.8z"/>
<path fill="#00B1EB" d="M147.4,127.4c0,0-0.5-3.8-3.1-4c0,0,0,0,0,0c-1.3-0.4-2.4,0-2.4,0c9,32.5,6.1,92.9,6.1,92.9l9.5,18.5
	c1,2.9,3.8,6.9,4.3,4.8C162.4,236.4,160.9,175.8,147.4,127.4z"/>
</svg>
